<svg xmlns="http://www.w3.org/2000/svg" width="198.154" height="153.812" viewBox="0 0 198.154 153.812"><path d="M199.9,55.147a37.716,37.716,0,0,1-3.275,3.871L182.337,73.31a6.973,6.973,0,0,1-5.36,2.382,1.637,1.637,0,0,0-1.489.893c-3.871,3.871-8.039,7.444-11.612,11.612-3.275,3.871-5.657,8.635-8.337,13.1-.3.3.3,1.191.6,1.489,2.382,2.68,5.062,5.062,7.742,7.742,4.169,4.169,4.169,8.933,0,13.4l-3.871,3.871a8.818,8.818,0,0,1-9.23,2.978c-2.084,2.382-4.169,4.466-6.253,6.551-2.978,3.275-6.253,5.062-10.124,3.573-2.978,2.978-5.36,5.657-8.039,8.337a7.957,7.957,0,0,1-7.742,2.084c-2.978,3.275-5.657,6.253-8.635,8.933-3.275,2.978-8.039,2.382-11.315-.6l-6.253-6.253c-3.275,2.382-6.551,3.871-10.421,2.084-4.764-2.084-8.635-5.657-9.826-11.315v-.893c-7.444-2.084-11.91-6.551-13.7-13.7-7.146-1.786-11.91-6.551-12.8-13.4-5.062.3-8.039-3.275-10.719-6.551a10.028,10.028,0,0,1,.3-13.4,44.3,44.3,0,0,1,5.36-5.062c-2.084-1.787-3.871-3.573-5.657-5.36-1.191-1.191-1.489-2.382-.6-3.573a2.658,2.658,0,0,1,4.466-.6L45.371,88.2a6.229,6.229,0,0,0,1.787,1.191,27.235,27.235,0,0,1,5.062,2.68c2.382,2.084,4.764,4.764,7.146,7.146,4.466-2.382,8.635-.893,11.91,2.978,1.787,2.084,3.871,4.169,6.253,6.551,3.573-.893,6.848.6,9.528,3.573l3.871,3.871a8.744,8.744,0,0,1,2.68,8.039,2.231,2.231,0,0,0,.3,1.489c1.489,1.191,2.978,2.084,4.466,3.275,2.68-1.191,2.978-1.191,5.36.893l14.888,14.888c2.084,2.084,3.275,2.084,5.657,0l3.871-3.871c2.084-2.084,2.084-3.275,0-5.657l-15.185-15.185a5.227,5.227,0,0,1-1.191-1.489c-.6-1.191-.6-2.68.6-3.275.893-.6,2.382-.3,3.275-.3.6,0,.893.893,1.489,1.191l18.163,18.163c2.084,2.084,3.275,2.084,5.657,0l4.169-4.169c1.787-1.786,1.787-3.275,0-5.062a33.973,33.973,0,0,1-5.657-4.466c-2.084-2.084-2.382-3.573-.893-5.062s2.978-1.191,5.062.893l6.848,6.848c2.084,2.084,3.275,2.084,5.36,0l3.871-3.871c2.084-2.084,2.084-3.275,0-5.36L126.955,81.349a63.16,63.16,0,0,1-4.466-4.466,25.713,25.713,0,0,1-2.978-4.764c-.6-.893-.893-1.489-2.084-1.787-7.444-1.787-14.888-3.573-22.629-5.36a2.819,2.819,0,0,0-3.275.893c-2.382,2.084-4.466,3.871-6.848,5.657-5.657,4.466-11.612,5.36-18.163,2.382a5.985,5.985,0,0,1-2.382-1.191c-3.871-2.084-4.764-6.253-1.787-9.528s6.253-6.551,8.933-9.826a28.616,28.616,0,0,0,4.169-6.253c-3.871-3.573-7.146-6.551-11.017-10.124a6.229,6.229,0,0,1-1.191,1.787C51.624,50.383,40.011,62.293,28.1,73.906c-3.275,3.275-5.955,3.275-9.23,0L3.983,59.018c-2.978-2.978-2.978-5.657,0-8.635L42.691,11.675c2.978-2.978,5.657-2.978,8.635,0C56.388,16.737,61.449,22.1,66.809,27.158c1.489,1.489,2.382,2.978,2.084,5.062a1.79,1.79,0,0,0,.3,1.191l8.635,8.635c.6-.6.893-.6,1.191-.893a10.257,10.257,0,0,1,8.635-3.275c6.848.3,13.994.893,20.843,1.191,4.466.3,8.933.893,13.4.893a8.86,8.86,0,0,0,4.466-1.489A15.919,15.919,0,0,0,130.23,34.6c1.191-1.191,2.978-2.382,2.382-4.764-.3-.893.893-2.382,1.489-3.275,5.36-5.36,10.719-11.017,16.079-16.376,2.382-2.382,5.062-2.382,7.444,0l5.36,5.36c1.489,1.489,1.489,2.978.3,4.169a2.678,2.678,0,0,1-4.169-.3c-1.489-1.489-2.978-3.275-4.466-4.764L138.865,30.434c12.8,12.8,25.9,25.607,38.708,38.708,4.764-5.062,10.124-10.124,15.483-15.483l-1.191-1.191L169.831,30.434a5.227,5.227,0,0,1-1.191-1.489,2.432,2.432,0,0,1,.3-3.573,2.711,2.711,0,0,1,3.573-.3A3.588,3.588,0,0,1,174,26.563l22.629,22.629a19.115,19.115,0,0,1,2.978,3.871C199.9,53.361,199.9,54.254,199.9,55.147ZM151.966,97.13c3.871-10.421,12.8-17.27,19.949-25.011-11.91-11.91-23.522-23.82-35.433-35.433-1.787,1.787-3.871,3.871-5.657,5.955a10.375,10.375,0,0,1-8.635,2.978c-11.017-.893-22.331-1.489-33.348-2.084-2.978-.3-5.062.893-6.253,3.871-2.084,5.657-5.657,10.124-9.826,14.292-1.489,1.489-2.978,3.275-4.466,5.062-.3.3-.6.893-.893,1.191,7.146,3.871,10.421,3.573,16.376-1.489,2.084-1.787,3.871-3.275,5.955-5.062a7.455,7.455,0,0,1,6.848-1.787c6.848,1.489,13.7,2.978,20.545,4.764,4.764,1.191,9.528,1.787,14.292.3,1.489-.6,2.68,0,3.573,1.489s0,3.275-1.787,3.871a62.336,62.336,0,0,1-6.253,1.489C134.7,79.861,143.034,88.5,151.966,97.13ZM47.753,15.844,8.747,54.849,24.23,70.333,63.236,31.327C57.876,26.265,52.815,20.906,47.753,15.844ZM63.534,129.288a27.663,27.663,0,0,0,1.489,2.978,35.688,35.688,0,0,0,3.275,3.573,3.978,3.978,0,0,0,5.955,0l11.315-11.315q2.233-2.233,0-4.466L80.8,115.293c-1.787-1.489-2.978-1.489-4.764,0L64.725,126.608A14.687,14.687,0,0,1,63.534,129.288Zm21.736,21.14c.893-.6,2.084-.893,2.978-1.489,2.978-2.68,5.657-5.657,8.635-8.635,1.489-1.489,1.489-2.978,0-4.169-1.489-1.787-3.275-3.275-5.062-5.062a2.878,2.878,0,0,0-4.169,0l-8.933,8.933a4.09,4.09,0,0,0-.3,5.36,23.8,23.8,0,0,0,3.871,3.871C82.888,149.833,84.079,149.833,85.27,150.428ZM50.433,115.889a5.611,5.611,0,0,0,1.191,2.68,23.8,23.8,0,0,0,3.871,3.871,3.871,3.871,0,0,0,5.657-.3c2.978-2.978,5.955-5.657,8.635-8.635a2.66,2.66,0,0,0,0-4.169c-1.489-1.786-3.275-3.275-4.764-4.764s-2.978-1.489-4.466,0l-8.635,8.635C51.326,113.507,51.028,114.7,50.433,115.889Zm-5.36-5.657a10.576,10.576,0,0,0,2.68-1.191,40.642,40.642,0,0,0,5.062-5.062c1.191-1.191.893-2.68-.3-3.871-1.787-1.787-3.275-3.573-5.062-5.062a2.878,2.878,0,0,0-4.169,0A33.852,33.852,0,0,0,38.82,99.81a4.1,4.1,0,0,0-.3,5.36,55.025,55.025,0,0,0,4.169,4.169A10.079,10.079,0,0,0,45.073,110.231Zm50.916,39.006,6.253,6.253c1.489,1.489,2.978,1.489,4.169,0,1.787-1.786,3.573-3.275,5.062-5.062,1.191-1.191,1.489-2.382.3-3.573a114.141,114.141,0,0,0-8.635-8.337C103.135,143.282,98.668,145.366,95.989,149.237Z" transform="translate(-1.75 -8.4)" fill="#fff"/></svg>