<svg xmlns="http://www.w3.org/2000/svg" width="151.298" height="152.325" viewBox="0 0 151.298 152.325"><g transform="translate(-497 -2895)"><path d="M19.895,10.116c1.264.632,2.528.948,3.476,1.9a6.322,6.322,0,0,1,1.9,7.269v1.264c3.16,3.476,6.637,6.637,9.8,9.8,3.16-2.528,6-4.74,8.849-6.953,1.9-1.58,3.16-1.264,4.108,0s.316,2.212-1.58,3.792C43.6,29.394,41.069,31.29,38.224,33.5l6.637,6.637a1.9,1.9,0,0,0,1.264.316H51.5a2.232,2.232,0,1,1,0,4.424H44.545a6.034,6.034,0,0,1-2.528-.948c-2.528-2.212-4.74-4.74-6.953-6.953C19.579,54.676,12.626,74.9,17.051,97.972c5.372,28.759,22.438,48.352,50.564,56.569,25.6,7.585,48.352,1.264,68.262-16.117l-21.49-21.49a8.379,8.379,0,0,0-1.9,1.58,41.014,41.014,0,0,1-66.05-26.23c-3.476-22.438,12.325-43.3,34.447-46.772h.948c2.844-.316,2.844-.316,2.844-3.476V14.54c-3.476.316-6.637.632-10.113,1.264a72.688,72.688,0,0,0-18.33,5.688,2,2,0,0,1-2.844-.316,5.859,5.859,0,0,1-.632-2.212c0-.632.948-1.264,1.58-1.58a75.483,75.483,0,0,1,26.23-7.269c.632,0,.948-.316,1.58-.316h5.688c1.264.948,1.264,1.9,1.264,3.476V30.342a55.442,55.442,0,0,1,31.6,11.693c.316-.632.632-.948.948-1.58,6-7.9,11.693-16.117,17.7-24.018a3.5,3.5,0,0,1,3.16-1.58h5.056a2.4,2.4,0,0,0,1.264-.632c.948-2.212,2.844-3.476,5.056-4.424h2.528a8.548,8.548,0,0,1,5.688,5.688v2.528c-.316.316-.316.948-.632,1.264-1.9,5.056-8.849,6.321-11.693,1.9-1.264-1.9-2.844-2.212-4.74-2.212h-.948a2.386,2.386,0,0,0-2.212,1.264c-4.108,6-8.533,11.693-12.957,17.382-1.58,2.212-3.476,4.74-5.056,6.953q16.591,15.643,18.014,38.871h6.953c1.9,0,2.528.948,2.528,2.844a27.186,27.186,0,0,1-.316,5.056,27.659,27.659,0,0,1-.632,5.056,2.406,2.406,0,0,1-2.528,2.212q-1.9-.474-1.9-2.844c0-.632.316-.948.316-1.58.316-1.9.316-4.108.632-6.321H127.344a41.9,41.9,0,0,1-10.113,24.966l13.905,13.905c1.58-2.212,3.476-4.424,5.372-6.637-.632-.632-1.264-.948-1.58-1.264l-1.264-1.264c-.948-1.264-1.264-2.528-.316-3.476s2.212-.948,3.476.316c.632.632,1.264,1.58,1.9,2.212.316,0,.316,0,.632-.316,1.58-3.476,2.844-6.637,4.424-10.113.632-1.58,1.58-2.212,2.844-1.58,1.264.316,1.9,1.58,1.264,3.16-1.264,2.844-2.528,6-4.108,8.849a9.885,9.885,0,0,0-1.58,3.16c4.424,4.424,8.849,9.165,13.589,13.589a5.425,5.425,0,0,1,1.9,4.74v9.165c0,.316.316.948.316,1.264,2.212.948,3.476,2.844,4.424,5.056v2.528a8.548,8.548,0,0,1-5.688,5.688h-2.844l-.316-.316c-2.844-.948-4.74-2.844-4.74-6-.316-3.16,1.264-5.372,3.792-6.953a2.4,2.4,0,0,0,.632-1.264v-8.533a3.414,3.414,0,0,0-.948-2.212c-3.476-3.792-7.269-7.269-11.061-11.061a5.549,5.549,0,0,1-1.264-1.58c-1.9,2.528-3.792,4.74-5.688,6.953l5.688,5.688c1.264,1.58,1.264,2.528,0,3.792-11.377,11.061-24.65,18.014-40.135,20.542-2.844.632-5.689.632-8.533,1.264H82.468c-.316,0-.948-.316-1.264-.316A69.917,69.917,0,0,1,61.61,157.7,75.929,75.929,0,0,1,11.678,77.43,73.161,73.161,0,0,1,24,43.615a115.5,115.5,0,0,1,7.585-9.8l-.948-.948c-2.844-2.844-5.688-5.688-8.217-8.533a1.954,1.954,0,0,0-2.212-.632,6.362,6.362,0,0,1-6.953-1.58,6.585,6.585,0,0,1-1.9-6.637c.632-2.844,2.844-4.108,5.372-5.056A14.511,14.511,0,0,1,19.895,10.116Zm67.63,112.506A36.659,36.659,0,1,0,50.865,85.963,36.686,36.686,0,0,0,87.525,122.622Zm50.88-38.871a52.093,52.093,0,0,0-16.117-35.079c-.632.948-1.264,1.58-1.58,2.212-.948.948-2.212,1.264-3.16.316a2.078,2.078,0,0,1-.316-3.16c.632-.948,1.264-1.58,1.9-2.528A50.3,50.3,0,0,0,90.369,34.766v8.849c0,.948.316,1.264,1.264,1.264,13.273,1.264,23.386,7.585,30.971,18.646a39.8,39.8,0,0,1,6.321,18.646,1.411,1.411,0,0,0,.948,1.264A68.856,68.856,0,0,0,138.405,83.75Zm20.226,71.106a2.719,2.719,0,0,0-2.528-2.528,2.493,2.493,0,0,0-2.528,2.528,2.719,2.719,0,0,0,2.528,2.528A2.493,2.493,0,0,0,158.631,154.857ZM18.631,14.54a2.528,2.528,0,1,0,0,5.056,2.326,2.326,0,0,0,2.528-2.528A2.493,2.493,0,0,0,18.631,14.54Zm140,2.844a2.528,2.528,0,1,0-5.056,0,2.767,2.767,0,0,0,2.528,2.844A3.359,3.359,0,0,0,158.631,17.385Z" transform="translate(485.875 2885.2)" fill="#fff"/><path d="M57.319,86.853c-10.745-.316-18.962-4.108-25.282-12.009a2.458,2.458,0,0,1-.632-2.528,2.03,2.03,0,0,1,1.58-1.58,3.588,3.588,0,0,1,2.528.948c2.212,1.9,3.792,4.108,6,5.688,9.165,6.321,18.962,6.953,28.442,1.58,9.8-5.372,14.537-13.905,13.905-24.966A26.9,26.9,0,0,0,57.951,28.072a27.194,27.194,0,0,0-28.126,23.7,21.727,21.727,0,0,0,.632,10.113c0,.316.316.632.316,1.264A2.261,2.261,0,0,1,29.192,66a1.954,1.954,0,0,1-2.528-1.58,29.748,29.748,0,0,1-.948-12.957C27.928,36.921,38.673,26.176,53.21,24.28c16.117-2.212,32.235,9.8,34.763,25.914A31.4,31.4,0,0,1,63.007,86.537C60.479,86.537,58.583,86.853,57.319,86.853Z" transform="translate(516.713 2915.912)" fill="#fff"/><path d="M44.925,35.649V45.762c0,.316.316.632.632.948a1.161,1.161,0,0,0,.948.316,10.081,10.081,0,0,1,6.953,9.165,11.092,11.092,0,0,1-6.953,10.429c-1.264.316-1.58.948-1.58,2.212,0,.632,0,1.58-.316,1.9A4.014,4.014,0,0,1,42.4,71.992a1.822,1.822,0,0,1-1.9-1.9c.316-2.528-.948-2.844-3.16-3.16a18.678,18.678,0,0,1-4.424-1.9c-1.264-.632-1.264-1.9-.632-3.16a2.375,2.375,0,0,1,3.16-.632c1.58.948,3.16,1.9,5.056,1.58V55.242c0-1.9.632-4.108-.316-5.372-.632-1.264-2.844-1.9-4.424-2.844-3.16-1.9-4.108-4.74-3.476-8.217s2.528-6,6-6.953c1.58-.316,2.212-.948,2.212-2.844A2.16,2.16,0,0,1,42.713,26.8a2.366,2.366,0,0,1,2.212,1.9v.948c0,.948.316,1.264,1.264,1.58a42.319,42.319,0,0,1,3.792,1.9c1.264.948,1.58,2.212.632,3.16a2.078,2.078,0,0,1-3.16.316A4.2,4.2,0,0,1,44.925,35.649Zm0,26.546c2.844-.948,4.108-3.476,4.108-6.321a5.006,5.006,0,0,0-4.108-4.424Zm-4.74-18.014V35.965a4.078,4.078,0,0,0-3.792,3.792C36.392,41.653,37.34,43.233,40.184,44.182Z" transform="translate(530.687 2921.925)" fill="#fff"/></g></svg>