<?xml version="1.0" standalone="no"?>
<!DOCTYPE svg PUBLIC "-//W3C//DTD SVG 20010904//EN"
 "http://www.w3.org/TR/2001/REC-SVG-20010904/DTD/svg10.dtd">
<svg version="1.0" xmlns="http://www.w3.org/2000/svg"
 width="700.000000pt" height="700.000000pt" viewBox="0 0 700.000000 700.000000"
 preserveAspectRatio="xMidYMid meet">
<metadata>
Created by potrace 1.14, written by Peter Selinger 2001-2017
</metadata>
<g transform="translate(0.000000,700.000000) scale(0.100000,-0.100000)"
fill="#000000" stroke="none">
<path d="M1 5788 c1 -1037 2 -1159 15 -1129 61 139 175 188 712 306 86 19 227
50 312 70 85 19 164 37 175 39 11 2 70 16 130 31 61 14 121 29 135 31 122 24
719 198 795 233 11 5 63 26 115 47 252 102 441 229 517 350 15 24 31 44 35 44
19 0 62 -188 61 -270 -1 -176 -120 -333 -323 -427 -164 -77 -281 -124 -540
-220 -484 -180 -680 -272 -925 -437 -206 -139 -288 -220 -342 -336 -36 -76
-37 -179 -4 -270 31 -85 40 -102 42 -75 8 119 25 167 90 265 63 95 179 226
208 235 21 6 175 -45 358 -121 266 -111 396 -197 423 -281 19 -57 76 -143 123
-185 23 -21 120 -81 216 -135 96 -54 211 -119 255 -144 45 -25 102 -57 128
-71 25 -15 64 -38 87 -52 22 -14 42 -26 45 -26 2 0 53 -29 114 -65 l111 -64
73 25 c40 13 95 27 123 30 48 6 52 5 87 -31 57 -59 64 -78 40 -111 -34 -47
-33 -100 3 -142 14 -16 26 -40 28 -53 13 -84 -135 -514 -244 -705 -12 -21 -33
-59 -47 -84 -23 -40 -65 -100 -120 -169 -20 -24 -57 -34 -192 -48 -101 -11
-309 -8 -372 6 -54 11 -63 18 -139 99 -45 48 -98 108 -118 134 -20 26 -44 50
-54 53 -39 14 -314 6 -389 -11 -10 -2 -26 -6 -36 -8 -63 -14 -113 -31 -154
-51 -26 -13 -94 -38 -150 -55 -167 -51 -248 -80 -343 -123 -49 -22 -104 -40
-122 -40 -44 -1 -222 91 -318 163 -199 151 -333 316 -478 590 -22 41 -46 84
-54 95 -15 19 -15 19 -9 -5 4 -14 18 -75 31 -136 61 -280 210 -527 430 -711
100 -84 277 -180 402 -217 14 -5 65 12 160 52 145 63 294 116 356 127 l37 7
-4 -63 c-24 -370 -25 -1271 -1 -1469 1 -14 6 -68 10 -120 3 -52 9 -103 11
-113 5 -16 110 -17 2067 -15 l2062 3 7 40 c6 36 14 92 23 165 2 14 7 59 10
100 4 41 9 89 11 105 10 72 18 350 18 585 -1 217 -4 310 -17 533 -2 26 4 31
98 72 138 60 245 118 345 186 121 82 224 185 226 224 9 168 68 482 139 735 18
66 32 120 30 120 -9 0 -142 -223 -170 -285 -30 -65 -122 -321 -129 -359 -12
-60 -43 -138 -63 -161 -75 -80 -307 -197 -588 -295 -112 -39 -123 -40 -255
-26 -25 3 -74 8 -110 11 -36 4 -80 8 -98 10 -23 3 -83 -17 -215 -72 -228 -94
-247 -102 -272 -116 -12 -8 -84 -13 -186 -15 -165 -4 -166 -3 -291 32 -109 31
-157 53 -369 168 -134 72 -254 140 -266 151 -30 27 -39 77 -20 113 8 16 39 54
69 85 164 170 218 237 373 459 l170 243 1 86 c1 77 6 98 48 206 54 138 42 124
306 349 96 82 195 168 220 190 25 23 75 66 110 96 36 30 87 76 115 102 27 25
65 59 82 75 l33 28 -107 80 c-115 86 -132 99 -171 131 l-26 21 42 50 c104 125
263 258 322 270 127 26 295 25 410 -2 82 -19 200 -63 249 -93 30 -18 32 -18
93 3 35 12 70 25 78 28 86 35 177 59 235 62 39 2 115 7 171 10 98 6 105 5 275
-41 191 -52 219 -64 327 -136 l72 -49 0 1321 0 1320 -3500 0 -3500 0 1 -1162z"/>
</g>
</svg>
