<svg xmlns="http://www.w3.org/2000/svg" width="108.053" height="121.459" viewBox="0 0 108.053 121.459"><g transform="translate(0 92.899)"><path d="M39.017,247.243a4.376,4.376,0,0,1,3.452,4.663c0,4.977-3.228,7.443-9.684,7.443H20.5V235.9H32.426c6.187,0,9.281,2.152,9.281,6.5a4.736,4.736,0,0,1-2.69,4.708Zm-6.86-2.062c.9,0,1.345-.448,1.345-1.39s-.448-1.39-1.345-1.39H29.108v2.78Zm.269,7.846c.9,0,1.345-.448,1.345-1.39s-.448-1.39-1.3-1.39H29.153v2.78Z" transform="translate(-20.5 -235.497)" fill="#fff"/><path d="M81.208,235.9v23.449H72.6V235.9Z" transform="translate(-49.241 -235.497)" fill="#fff"/><path d="M118.563,255.545c-2.466,2.466-6.008,3.721-10.626,3.721-4.125,0-7.263-.942-9.505-2.869-2.421-2.062-3.632-5.156-3.632-9.191a10.964,10.964,0,0,1,4.394-9.281A15.616,15.616,0,0,1,108.7,235.1a15.183,15.183,0,0,1,9.012,2.466l-1.883,6.053c-1.435-1.076-3.632-1.614-6.5-1.614-3.856,0-5.784,1.749-5.784,5.2s1.569,5.156,4.753,5.156a6.623,6.623,0,0,0,2.556-.4v-1.39h-3.228v-5.425h10.85v10.4Z" transform="translate(-61.487 -235.055)" fill="#fff"/><path d="M171.552,259.211l-6.142,4.349-3.5-4.573a13.224,13.224,0,0,1-6.1-1.614,10.154,10.154,0,0,1-4.08-4.17,12.379,12.379,0,0,1-1.435-6.1,12.71,12.71,0,0,1,1.569-6.322,10.867,10.867,0,0,1,4.394-4.259A13.833,13.833,0,0,1,162.809,235a13.444,13.444,0,0,1,6.546,1.524,10.858,10.858,0,0,1,4.394,4.259,12.71,12.71,0,0,1,1.569,6.322,11.1,11.1,0,0,1-1.524,5.6,12.289,12.289,0,0,1-3.99,4.3Zm-6.187-8.339a7.513,7.513,0,0,0,0-7.443,3.093,3.093,0,0,0-2.645-1.435,3.169,3.169,0,0,0-2.69,1.435,7.23,7.23,0,0,0,0,7.443,3.169,3.169,0,0,0,2.69,1.435A3.04,3.04,0,0,0,165.365,250.872Z" transform="translate(-92.104 -235)" fill="#fff"/><path d="M219.614,247.512l8.788,11.837H218.313l-3.452-5.335-3.408,5.335H201.5l8.608-11.792-8.16-11.657h9.774L215,241.191l3.228-5.291H228Z" transform="translate(-120.348 -235.496)" fill="#fff"/></g><path d="M45.249,54.791c1.255-.762,5.2-1.659,9.774-2.645,9.909-2.2,23.18-5.156,25.287-10.178a7.434,7.434,0,0,1,.583,4.887A6.319,6.319,0,0,1,77.082,50.8a76.156,76.156,0,0,1-7.219,2.914A45.529,45.529,0,0,0,57.4,59.947c-.179.135-4.259,2.825-3.138,6.142l.628,1.793.224-1.928a6.94,6.94,0,0,1,1.48-2.556,8.944,8.944,0,0,1,2.152-2.242c4.977,1.614,8.519,3.363,9.46,4.618a5.945,5.945,0,0,0,2.78,3.542c2.062,1.121,10.671,6.053,10.716,6.1l.179.09.179-.09a12.458,12.458,0,0,1,2.69-.717c.314,0,.942.717,1.39,1.48a2.008,2.008,0,0,0-.628,1.345,1.344,1.344,0,0,0,.673,1.121c.628.852-2.466,9.909-5.425,12.644-.717.135-4.753.852-7.488,0-.359-.359-1.928-2.018-2.869-3.228l-.134-.135h-.179c-.224,0-5.066-.448-7.8,1.211a39.22,39.22,0,0,0-6.994,2.556c-.986-.314-6.008-2.152-9.46-8.474l-1.48-2.735.673,3.049a15.471,15.471,0,0,0,10.312,10.76l.179.045.179-.09c.045,0,4.3-2.062,6.456-2.376a155.158,155.158,0,0,0,.179,22.238h51.65a80.33,80.33,0,0,0,.538-19.5c1.39-.538,6.322-2.511,8.295-5.291l.09-.135v-.135a43.294,43.294,0,0,1,1.435-7.981L125.1,78.2l-1.614,2.511c-.045.09-1.166,1.838-2.69,7.353-1.659,2.107-8.25,4.259-9.1,4.528l-4.753-.493-6.277,2.6h-3.9l-3-.807L87.618,90.57a1.176,1.176,0,0,1-.628-.9A1.344,1.344,0,0,1,87.3,88.6l3.183-3.407L94.837,79V76.895l1.255-3.138,7.8-6.725,2.376-2.152-3.811-2.869c.986-1.211,3-3.5,4.394-3.99a11.827,11.827,0,0,1,8.608,1.255l.179.134,3.766-1.345,4.349-.269,4.618,1.3c.538.314,1.435.9,2.6,1.659V27.8H43.5V57.3A3.755,3.755,0,0,1,45.249,54.791Z" transform="translate(-33.188 -27.8)" fill="#fff"/></svg>