<svg xmlns="http://www.w3.org/2000/svg" width="154.975" height="152.325" viewBox="0 0 154.975 152.325"><g transform="translate(-7.356 -4.9)"><path d="M113.8,38.9a178.8,178.8,0,0,1,29.736-3.366c5.891-.281,8.977,2.805,8.977,8.7V47.6a44.876,44.876,0,0,1,5.33,3.086,11.047,11.047,0,0,1,4.488,9.257v70.692a12.453,12.453,0,0,1-12.343,12.343H20.384c-6.733,0-11.782-4.208-12.9-10.66a9.4,9.4,0,0,1,0-2.805V61.906c0-7.294,2.805-11.5,10.1-13.746V43.391a7.585,7.585,0,0,1,8.135-7.855A175.5,175.5,0,0,1,55.45,38.9h.842a28.76,28.76,0,0,1,10.66-19.637,29.266,29.266,0,0,1,17.112-6.452C97.529,12.253,112.116,22.632,113.8,38.9ZM82.381,93.044H79.856a2.525,2.525,0,0,1,0-5.049h10.1a2.525,2.525,0,1,1,0,5.049H87.43v43.481c.281,0,.561-.281.842-.281a165.942,165.942,0,0,1,56.105-10.66,2.807,2.807,0,0,0,3.086-3.086V43.672q0-3.366-3.366-3.366a169.017,169.017,0,0,0-29.175,3.366,1.8,1.8,0,0,0-1.4,1.4,26.646,26.646,0,0,1-10.379,18.8,14.48,14.48,0,0,0-5.891,11.221,8.717,8.717,0,0,1-8.135,7.855h-8.7a8.141,8.141,0,0,1-8.135-8.135,13.56,13.56,0,0,0-5.611-10.66,23.9,23.9,0,0,1-8.416-11.221c-1.122-2.805-1.683-6.172-2.805-9.257a172.307,172.307,0,0,0-29.736-3.366c-2.525,0-3.647.842-3.647,3.647v78.267c0,2.525.842,3.366,3.366,3.366A161.2,161.2,0,0,1,80.7,136.245c.561.281.842.281,1.4.561C82.381,122.219,82.381,107.632,82.381,93.044ZM87.43,77.9c3.086.281,5.049-.842,5.049-3.366.281-6.172,3.086-10.66,7.574-14.307a23.881,23.881,0,1,0-37.31-27.211c-3.927,10.1-1.122,21.039,7.294,27.491,4.488,3.366,6.733,7.855,7.294,13.465.281,3.086,1.964,4.208,5.049,3.647V62.467a3.185,3.185,0,0,0-.842-2.244c-3.366-4.208-7.013-8.416-10.66-12.624a2.656,2.656,0,0,1-.842-3.086c.561-1.4,1.683-1.4,3.086-1.4H96.687c1.4,0,2.525.281,3.086,1.683a2.551,2.551,0,0,1-.842,3.086l-7.855,7.855c-1.4,1.4-2.805,1.4-3.927.281s-.842-2.525.561-3.927c1.122-1.122,2.525-2.244,3.927-3.647H78.173l8.416,10.1a4.9,4.9,0,0,1,1.122,3.366V75.091A7.817,7.817,0,0,0,87.43,77.9ZM152.512,53.49v68.448c0,5.33-3.086,8.416-8.416,8.7a175.943,175.943,0,0,0-43.481,7.013c-.281,0-.561.281-.842.281v.281h49.372c5.891,0,8.7-2.805,8.7-8.7V59.942A7.977,7.977,0,0,0,152.512,53.49ZM17.3,53.49a7.243,7.243,0,0,0-5.049,7.294v69.009c0,5.33,3.086,8.416,8.416,8.416H70.037c-.281-.281-.561-.561-.842-.561a173.745,173.745,0,0,0-43.2-7.013c-5.891-.281-8.7-3.086-8.7-8.977v-66.2C17.3,54.893,17.3,54.332,17.3,53.49Z" transform="translate(0 14.248)" fill="#fff"/><path d="M34.1,12.194V7.425A2.354,2.354,0,0,1,36.625,4.9a2.59,2.59,0,0,1,2.525,2.805v9.818a2.354,2.354,0,0,1-2.525,2.525A2.59,2.59,0,0,1,34.1,17.243Z" transform="translate(48.281 0)" fill="#fff"/><path d="M52.722,11.032a15.658,15.658,0,0,1-1.4,2.244c-1.964,2.244-4.208,4.208-6.172,6.172-1.4,1.4-2.805,1.4-3.927.281S40.1,17.2,41.5,15.8l6.452-6.452a2.561,2.561,0,0,1,3.086-.561A15.558,15.558,0,0,1,52.722,11.032Z" transform="translate(59.674 6.492)" fill="#fff"/><path d="M37.329,17.823c-.561.561-.842,1.683-1.683,1.964a3.867,3.867,0,0,1-2.525,0,89.47,89.47,0,0,1-7.294-7.294,2.2,2.2,0,0,1,.281-3.086,2.222,2.222,0,0,1,3.086-.281c2.525,2.525,5.049,4.769,7.294,7.294C37.048,16.421,37.048,17.262,37.329,17.823Z" transform="translate(32.428 6.713)" fill="#fff"/><path d="M81.255,45.1c1.683,0,2.805.842,2.805,2.244s-1.122,2.525-3.086,2.805a170.5,170.5,0,0,0-37.59,6.733,5.469,5.469,0,0,1-2.244.281c-1.4,0-2.525-.561-2.805-1.964A2.312,2.312,0,0,1,40.3,52.394c4.208-1.122,8.416-2.244,12.9-3.366A157.115,157.115,0,0,1,81.255,45.1Z" transform="translate(55.828 72.571)" fill="#fff"/><path d="M18.694,45a167.452,167.452,0,0,1,39.274,7.294c1.964.561,2.805,1.964,2.244,3.366-.281,1.4-1.964,2.244-3.927,1.683a163.631,163.631,0,0,0-25.808-5.891c-4.208-.561-8.416-.842-12.343-1.4-1.964-.281-3.086-1.122-2.805-2.805C15.608,45.842,16.73,45,18.694,45Z" transform="translate(14.314 72.391)" fill="#fff"/><path d="M83.889,43.025c0,1.4-1.122,2.244-2.805,2.525-6.172.842-12.624,1.4-18.8,2.525-6.452,1.122-12.9,3.086-19.076,4.488-.561,0-1.122.281-1.683.281a2.652,2.652,0,0,1-3.086-1.683,2.5,2.5,0,0,1,1.964-3.086c3.647-1.122,7.574-2.244,11.221-3.086A192.189,192.189,0,0,1,79.962,40.5C82.767,40.5,83.889,41.342,83.889,43.025Z" transform="translate(55.999 64.267)" fill="#fff"/><path d="M18.766,36.234A167.451,167.451,0,0,1,58.04,43.528c1.683.561,2.525,1.683,2.244,3.086S58.6,48.858,56.637,48.3A163.087,163.087,0,0,0,31.39,42.686c-4.208-.561-8.7-.842-12.9-1.4C16.242,41,15.4,40.162,15.4,38.478s1.122-2.525,3.366-2.244Z" transform="translate(14.522 56.47)" fill="#fff"/><path d="M83.776,38.725q0,2.1-2.525,2.525c-2.525.281-5.33.561-7.855.842a173.471,173.471,0,0,0-29.175,5.891,8.191,8.191,0,0,1-2.525.561c-1.4.281-2.805-.281-3.086-1.4-.561-1.4.281-2.805,1.964-3.366,3.647-1.122,7.013-1.964,10.66-3.086A178.144,178.144,0,0,1,80.69,36.2C82.654,36.2,83.776,37.042,83.776,38.725Z" transform="translate(56.112 56.504)" fill="#fff"/><path d="M17.925,40.5A171.793,171.793,0,0,1,58.04,47.794c1.683.561,2.525,1.683,1.964,3.086s-1.683,1.964-3.366,1.4A149.533,149.533,0,0,0,23.255,45.83a30.49,30.49,0,0,0-5.049-.281A2.65,2.65,0,0,1,15.4,42.744,2.291,2.291,0,0,1,17.925,40.5Z" transform="translate(14.522 64.267)" fill="#fff"/><path d="M18.794,29.8c5.891.842,11.782,1.683,17.673,2.244a2.741,2.741,0,0,1,2.525,2.805,2.837,2.837,0,0,1-3.086,2.244c-5.891-.561-11.782-1.4-17.954-2.244-1.683-.281-2.805-1.4-2.525-2.805C15.428,30.642,16.55,30.081,18.794,29.8Z" transform="translate(14.495 44.951)" fill="#fff"/><path d="M19.362,26.2c2.525.281,5.611.561,8.977.842a2.732,2.732,0,0,1,2.244,2.805,2.291,2.291,0,0,1-2.525,2.244c-3.647-.281-7.013-.561-10.66-1.122a2.312,2.312,0,0,1-1.964-2.805C15.435,27.042,16.557,26.2,19.362,26.2Z" transform="translate(14.488 38.452)" fill="#fff"/></g></svg>