<svg xmlns="http://www.w3.org/2000/svg" width="138.964" height="158" viewBox="0 0 138.964 158"><g transform="translate(0.004 0)"><path d="M3.42,289.814C.657,288.536-.044,286.351,0,283.465c.536-28.367,22.183-53.56,50.1-58.137a75.5,75.5,0,0,1,10.6-.907c6.226-.124,12.452-.206,18.678,0,23.914.825,41.4,12.163,52.818,32.985,4.453,8.123,6.35,16.946,6.762,26.182.124,2.886-.742,4.989-3.422,6.226ZM9.192,280.5h120.19c-.041-.66-.041-1.2-.124-1.773a49.1,49.1,0,0,0-5.814-18.1c-8.865-15.668-22.1-24.945-40.118-26.636-7.174-.7-14.472-.289-21.729-.33a48.344,48.344,0,0,0-7.71.412c-20.863,3.34-34.841,15.091-41.974,34.923C10.635,272.621,10.1,276.538,9.192,280.5Z" transform="translate(0 -131.815)" fill="#fff"/><path d="M150.729,41.644A41.665,41.665,0,1,1,109.126,0,41.766,41.766,0,0,1,150.729,41.644Zm-74.052-.082A32.408,32.408,0,1,0,109.168,9.277,32.485,32.485,0,0,0,76.677,41.561Z" transform="translate(-39.612)" fill="#fff"/></g></svg>